
<svg xmlns="http://www.w3.org/2000/svg" version="1.1" xmlns:xlink="http://www.w3.org/1999/xlink" preserveAspectRatio="none" x="0px" y="0px" width="500px" height="500px" viewBox="0 0 500 500">
<defs>
<path id="Layer1_0_1_STROKES" stroke="#000000" stroke-width="2" stroke-linejoin="miter" stroke-linecap="butt" stroke-miterlimit="4" fill="none" d="
M 201.55 116
L 211.2 118.15 213.15 119.9 216.35 119.15 219.65 120.1 219.85 117.2 216.55 114.05 216.35 111.9 217.7 109.55 220.05 109.3 221.3 102.6 223.25 103.25 225.6 100.25 224.35 97.65 224.35 95.5 226.3 95.5 226.9 93.55 229.5 92.05 229.95 89.05 233.2 89.05 234.9 86.7 239.4 88.05 244.1 87.3 246.7 88.25 250.35 86.1 253.65 85.15 252.75 80.85 250.6 78.95 247.6 78.55 245.45 76.2 250.6 73.95 254.9 78.75 257.05 77.25 259.65 81.35 264.8 82.6 267.55 81.05 268.05 83 278.75 84.95 282 87.5 283.75 87.8 285.45 86.1 288.5 86.5 289.1 88.05 292 87.3 293.2 90.2 295.15 90.4 296.65 88.25 295.15 86.5 298.2 84.95 298.8 84.95 300.1 86.9 302.7 87.8 303.8 89.45 301.55 91.85 300.1 94.2 298.4 94.5 298.8 97.25 297.45 99.2 295.55 98.55 291.25 101.3 291.25 105 292.6 106.3 290.65 109.75 290.85 110.75 288.9 112.3 286.35 116.6 285.45 117.2 286.35 120.3 294.5 125.65 295.35 127.4 299 129.35 299.9 132.1 304 131.5 311.75 136 313.45 139.25 315.35 140.25 323.35 143.1 325.95 145.05 328.1 149.5 331.95 151.05 336 154.3 343.4 153 348.3 145.25 351.1 141.6 353.05 135.2 353.5 131 356.25 123.7 355 120.3 356.05 114.45 355.4 111.9 354.35 109.3 357.8 103.45 357.35 98.75 359.5 97.65 361.05 95.7 358.2 93.15 362.95 85.85 365.3 76.6 367.65 75.3 369.8 73.15 370.95 73.55 370.75 75.1 373.3 77.25 373.5 86.5 374.75 88.05 376.5 89.05 374.75 92.05 378.45 96.45 378.45 98.1 379.55 101.3 378.85 109.1 381.3 118.35 383.8 119.6 386.65 117 390.05 116.4 390.95 120.1 397.55 125.65 397.35 131.9 398.5 137.1 397.75 143.35 404.25 156.45 404.05 161.2 402.6 164.6 405.35 165.7 404.45 173 407.5 176.7 412.05 179.7 416.55 180.1 418.3 185.75 423.2 186.6 425.3 191.1 427.25 189.55 430.75 192.85 429.7 195.4 434.45 205.95 435.25 214.15 435.25 218.45 438.25 219.05 439.15 219.9 439.6 215.15 441.55 216.5 446.25 221.65 448.2 225.1 447.1 232 452.25 239.1 455.3 239.75 457.25 242.7 457.9 246.4 461.75 249.2 463.65 254.8 465.4 256.3 465.2 259.95 466.95 263.05 466.5 264.5 465.2 266.4 465.4 274.8 465.2 276.95 463.45 276.75 466.5 283.9 466 289.25 466.3 290.6 466 296.1 463.25 301.3 458.1 314.25 458.1 318.15 453.8 327.8 449.95 332.95 448.8 335.95 441.1 340.85 435.05 348.05 430.75 357 428.8 363.5 422.15 370.35 418.3 380.95 416.95 388.75 415 391.3 412.45 393.8 398.5 393.6 392.65 395.55 385.95 401.6 377.8 403.35 377 401.8 368.8 396.9 370.5 392.55 369.2 390.2 366.4 394.25 364.45 395.95 355.2 400.25 350.45 396.9 341.25 392.35 338.65 394.05 332.25 389.65 331.65 389.45 328.6 389 326.35 386.4 322.3 379 321.4 376.2 322.3 374.05 320.45 364.65 314.45 359.55 312.1 359.85 310.6 360.25 307.85 359.95 308.05 358.55 310.75 354 311.3 351.65 311.15 349.25 307.65 343.75 304.5 353.95 302.7 354.75 297.6 354.75 296.55 352.35 297.7 351.45 300.4 351.4 300.85 349.65 301.5 344 302.7 339.7 305.7 337.1 306.45 335.85 306.3 332.4 307.75 331.7 308.2 331.05 305.7 324.25 304.7 324.45 304.5 328.3 302.95 329.95 299 337.1 296.45 337.6 292.6 340.25 287.15 348.45 284.75 350.25 282.4 349.25 279.85 341 279.8 338.85 276.75 335.95 274.75 331.25 272 330.35 270.05 328.4 269.2 326.8 270.5 324.45 268.4 323.25 265.85 319.35 263.8 318.4 260.55 319.45 258.8 318.2 256.5 317 254.25 316.6 253.15 317.4 251.5 317.4 245.05 313.25 241.7 311.65 240.5 311.45 239.55 311.65 237.85 312.5 220.4 313.45 218.5 314.25 202.8 322.4 194.65 321.95 190.75 322.65 178.5 330.55 174.2 331.4 172.7 332.5 171.55 338.1 169 341.8 165.15 343.75 163.2 343.25 161.7 343.25 153.55 344.75 148.55 343.75 133.5 346.3 129.4 348.65 128.8 352.1 123.15 354.25 120.15 358.35 118.2 360.05 111.95 362.4 105.95 363.05 99.9 362.85 96.7 361.6 93 358.1 88.5 356.6 86.15 357.5 84.8 355.35 84.2 350.2 84.2 347.85 87.5 349.05 88.9 348.65 90.05 344.95 90.25 342.2 88.5 327.8 87.05 324.1 80.55 314.85 78 309.3 77.8 305.8 76.7 299.95 73 294.65 66.2 286.5 65.45 282.8 62.9 278.25 56.05 270.75 55.2 268.8 60.15 269.45 58 266.4 54.3 262.75 54.9 259.95 60.95 266.2 64.25 267.9 64.05 262.75 56.65 254.4 54.7 250.1 51.7 246.8 51.7 241.05 53.25 237.4 53.85 231.6 53.65 229.15 51.1 225.55 53.25 217.1 54.9 216.7 55.8 223.35 57.35 223.35 59.2 222.35 60.35 215.45 62.7 213.2 68.75 210.25 77.3 200.15 80.35 198.2 84 197.75 88.5 198.4 92.8 196.9 94.35 194.3 95.9 193.05 102.3 191.3 103.4 190.5 105.35 186.8 111.35 188.05 113.1 186.6 118.9 185.25 121 183.6 127.7 179.7 130.45 176 132.9 168.05 137.2 164.15 138.7 161.8 136.1 155.15 136.5 151.75 143.4 143.35 144.95 142.4 144.95 143.55 146.7 147.5
Q 148.55 151.6 149.05 152.15 149.45 152.65 150.65 153.4 151.25 153.8 151.8 154.1
L 152.65 148.05 153.95 149.3 154.6 147.2 151.4 143.75 152.2 140.95 151.6 139.25 153.55 138.55 156.1 139.25 160.25 139.65 159.55 137.95 161.45 135.6 160.45 133.85 159.95 131.7 160.65 129.95 164.05 127.15 166.9 127.8 166.45 123.9 168.4 123.3 169 123.3 166.7 120.7 168.6 117.95 173.5 115.55 175.95 117 177.8 112.1 182.55 110.35 183.45 111.25 184.9 110.35 184.3 108.25 186.05 106.95 188.4 106.95 194.85 109.95 201.55 116 Z"/>
</defs>

<g id="Blank_US_Map__states_only__svg">
<g transform="matrix( 1, 0, 0, 1, 0,0) ">
<use xlink:href="#Layer1_0_1_STROKES"/>
</g>
</g>
</svg>
