
<svg xmlns="http://www.w3.org/2000/svg" version="1.1" xmlns:xlink="http://www.w3.org/1999/xlink" preserveAspectRatio="none" x="0px" y="0px" width="500px" height="500px" viewBox="0 0 500 500">
<defs>
<path id="Layer0_0_1_STROKES" stroke="#000000" stroke-width="2" stroke-linejoin="miter" stroke-linecap="butt" stroke-miterlimit="4" fill="none" d="
M 336.15 333.25
L 336.4 333.35 337.75 329.95 338.8 330.25 340.3 333.1 340.3 333.55 339 334.4 340.3 334.6 342.75 333.4 343.2 333.5 344.75 333.25 347.55 332.25 352.5 331.7 356.15 332.55 359.9 334.35 360.7 335.1 362.05 335.65 362.8 336.5 363 337.8 364.5 337.2 366.35 337.2 368.05 336.3 369.8 334.6 371.25 334.7 371.5 334.2 371.15 333.65 371.2 332.8 373.05 332.45 374.3 332.45 375.7 333.15 377.65 333.85 378.8 335.6 380.05 336.1 380.6 337.65 382.25 338.45 382.95 339.7 386.35 340.6 386.95 342.05 388.35 343.8 388.35 348.25 387.65 350.55 387.8 351.75 388.4 354.05 389.25 355.95 389.65 355.7 390.35 353.55 389.1 353.1 389 352.8 389.75 352.55 391.8 353 391.95 353.8 390.45 356.4 389.45 357.5 392.4 360.7 393.75 363.25 395.1 365.05 396.15 367.45 397 367.55 397.7 366.6 398.55 367.1 399.8 369 400.05 370.7 401.55 372.75 401.9 372.2 403.8 372.3 405.5 373.35 407.05 375.85 407.45 377.45 407.6 378.85 408.15 379.3 408.75 379.5 409.9 379.05 410.6 378.3 412.4 378.2 413.9 377.5 415.15 376 414.9 375.05 414.8 373.95 415.05 373.05 414.9 372.2 416.05 371.55 416.2 369.9 415.9 369.1 415.7 363.4 415.05 359.85 410 350.7 408.65 349.3 407.25 345.8 407.6 345.15 408.15 344.5 407.35 343.15 403.2 338.85 398.95 331.4 396.15 323.35 395.65 319.9 396.75 315.2 397.5 313.2 397.25 312 398.8 309.05 398.65 308.45 398.85 307.85 399.95 307.1 402.3 304.6 401.8 303.05 403.2 303 404.9 301.35 405.65 300.95 408 298.1 409 296.4 410.1 296.15 410.65 294.85 411.4 294.5 411.65 291.5 412.9 288.65 415.75 285.75 418.15 285.05 420.35 284.8 421.5 280.65 423.15 278.35 426.25 275.85 428.7 274.75 429.95 274.5 430.45 274.75 431.05 274.75 433.45 270.75 432.85 270.95 431.7 272.1 431.45 271.35 429.45 271.35 430.4 268.3 430 267.7 429.05 267.7 429.05 267.25 428.95 266.6 429.7 267.25 431.55 267.5 433.25 266.7 433.9 265.35 434.2 264.35 435.45 263.75 435.55 261.75 435.15 261.45 436.3 261.4 436 260.35 434.9 259.15 430.2 250.45 427.5 251.25 426.75 250.55 427.95 249.85 427.7 248.7 426.9 247.85 426.85 247.2 425.75 246.45 425.7 245.7 426.95 245.75 427.1 245.1 426.55 244.75 426.75 243.8 426.05 243.3 426.3 241.1 425.85 240.55 424.3 240.35 423.3 239.3 421 238.9 417.75 237.8 417.05 237.3
Q 417.1 237.2 417.15 237.15
L 418.05 237.75 419.7 238.25 421.7 238.2 424.15 238.85 424.65 237.85 423.95 236.8 423.95 235.95 422.75 234.95 421.75 232.4 422.4 229.9 422.3 228.9 421.65 228.25
Q 422.4 227.5 422.4 227.2 422.4 227.05 422.5 226.55
L 422.6 226.2 424.4 224.8 424.7 225.3 423.95 226.05 423.35 227.8 423.45 228.3 424.3 228.4 424.55 231.1 423.55 231.5 423.75 233.2 423.95 233.15 424.45 232.2 425.2 233.1 424.45 233.75 424.3 235.3 425.55 236.95 426.45 237.05 427.3 238.85 427.4 239.75 427.95 240.6
Q 428.3 240.15 428.3 240 428.3 239.9 428.05 238.6
L 427.55 237.1 428.15 236.75 429.65 238.75 430.8 239.2 430.85 239.95 430.55 241.55 429.8 243.5 429.6 246.1 430.25 248.25 431.35 247.4 432.2 245 431.9 243.4 432.15 241.25 433.5 239.45 433.6 237.6 434.45 235.8 434.75 233.55 433.45 229.6 433.05 229.8 431.35 228.75 429.6 224.8 428.45 224.25 427.45 222.55 427.95 220.55 428 220 428.45 219.95 428.4 220.65 428.1 221.9 428.55 222.85 430.05 224.2 432.35 225.3 434.2 225.55 434.3 226.3 433.95 226.7 434.1 228 434.45 228 435.5 226.9 435.85 224.6 437.15 222.75 438.55 219.65 439.1 217.05 438.85 216.55 438.75 212.1 438 210.5 437.45 210.85 436.2 211.05 435.9 210.75 437.8 209.05 438.35 209.2 444.2 207.35 449.4 203.55 451 201.85 449 201.05 448.4 201.75 447.05 203 443.3 204.85 442.2 204.75 441.45 204.5 440.9 204.75 439.85 206 439.15 206.6 438.5 206.7 438.35 206.15 439.25 205.3 439.4 204.6 441.8 202.95 444.4 200.5 444.75 200.75 446.05 200.05 448.5 199.55 451.8 197.85 452.3 197.75 453.6 197.2 454.75 196.3 455.25 195.45 455.85 195.55 458.55 194.25 458.3 193.2 458.75 192.45 460.1 191.7 460.5 193.25 460.2 194.1 459.1 194.8 459.1 195.3 460 194.6 461.85 192.45 465.7 190.8 465.55 189.7 465.05 188.3 464.15 187.2 463.3 186.85 462.3 186.95 462.1 187.15 462.55 187.75 463.25 187.35 464.25 188.1 464.65 189.45 463.8 190.3 462.7 190.75 460.95 190.5 459.15 187.7 458.1 186.4 457.2 186.4 456.7 186.85 455.8 185.6 455.9 184.9 457.1 182.4 455.7 180.35 455.5 179.9 455.85 179.55 456.35 178.05 457.1 172.45 457.75 171.85 457.35 170.35 458.8 168.65 459.5 169.35 460.15 169.1 462.7 167.65 462.8 166.3 464.2 166.05 464.95 164.8 464.7 162.6 465.1 162 464.95 161.45 464.3 160.75 465.3 160.15 466.15 161.65 466.85 161.5 467 162.1 467 162.85 467.95 162.95 468.2 161.7 468.4 161.4 467.6 160.7 468.1 160 469.25 159.3 469.75 158.6 470.6 158.5 470.7 158.95
Q 470.85 159.45 471.05 159.45
L 471.65 159.45 473.9 156.9 475.55 155.4 476.45 155.15 477.45 152.9 477.45 152.05 476.35 150.3 475.45 149.3 474.1 149.55 474.35 150 474.25 150.3 473.9 150.3 472.5 149.15 472.4 146.9 472 146.05 469.2 146.05 464.9 131.9 464 131.4 461.15 130.3 460.45 130.2 459.65 131.05 457.7 132.4 457.7 132.85 457.35 133.2 456.05 133 455.45 131.9 455.45 131.35 454.2 131.3 453.2 133.2 451 139.7 451.15 142.75 450.8 144 450.45 144.45 450.45 147.3 451.3 148.45 450.6 150.35 449.4 152.6 449 155.15 449 156.4 448.3 156.2 446.9 156.4 446.6 157.15 445.85 156.4 445.15 157.35 445.05 158.35 445.15 159.65 444.7 159.8 432.35 163.05 431.85 163.1 426.25 164.85 424.7 164.75 422.1 165.4 420.65 165.95 419.55 166.85 417.25 169.7 415.15 173.15 414.85 173.55 412.15 176.15 412.2 177.4 412.6 177.9 413.45 178.25 414.3 178.25 414.3 179 413.8 179.95 413.9 180.7 414.65 181.65 414.55 182.8 413.7 183.3 412.65 183.3 411.9 184.15 411 185.7 410.05 186.55 407.6 186.8 406.35 187.3 405.4 187.95 404.65 187.85 403.75 187.2 400.75 187.3 399.25 187.55 395.3 188.9 393.9 189.75 394.8 192.65 395.65 192.7 396.25 194.2 396.35 194.65 395.8 195.2 394.85 196.4 394.65 197.2 392.9 198.6 392.4 199.35 387.85 203.3 387.25 203.6 380.05 207.95 376.5 211.5 373.65 212.15 371 213.35 370.05 213.45 368.45 212 366 212.25 363.15 210.6 363.3 209.6 364.3 207.9 365.25 207.1 365.1 204.65 365.85 203.9 366.4 203.7 366.5 202 367.2 200.6 367.75 200.85 367.85 201.2 368.2 201.3 369.1 200.8 368.9 196.5 367.4 192.65 366.35 188.3 365.15 186.8 363.95 185.9 363.2 186.45 361.35 187.35 360.5 189.7 359.15 191.4 358.65 191.7 357.95 191.4
Q 357.65 191.25 357.35 191.05 356.75 190.6 356.8 190.45 356.9 190.2 357.1 188.1
L 358.65 187.45 359.3 184.65 360.5 183.85 360.35 179.15 359.55 178.05 358.95 177.7 358.6 176.65 358.95 176.3 359.7 176.45 359.8 175.7 358.6 174.65 357.95 173.45 356.7 173.45 354.6 172.75 352 171.1 350.7 171.1 350.45 171.4 349.95 171.15 348.55 170.05 345.75 172 345.85 173.7 347.35 174.05 347.55 174.45 346.4 174.8 345.1 175 344.45 175.8 344.25 176.85 344.45 177.55 344.55 180.2 342.85 181.2 342.6 181.1 342.6 179.1 343.2 178 343.45 176.85 343.1 176.45 342.2 176.85 341.7 178.8 340.45 179.4 339.6 180.25 339.55 180.7 339.8 181.1 339.55 182.3 338.4 182.55 338.4 183.1 338.8 184.2 338.25 187.1 337.5 189 337.85 191.2 338.05 191.7 337.5 193.25 337.4 194.55 340.5 200.45 341.2 202.75 340.35 207.8 339.2 210.25 339.05 211.5 334.7 215.25 334.2 215.4 333.45 214.9 332.05 214.55 331.6 214.5 331.5 214.05 330.5 211.1 329.75 210.2 329.05 209 328.8 206 328.95 204.55 328.15 202.35 327.9 199.55 327.35 198.35 328.2 195.55 328.95 194.35 328.35 191 328.6 190.2 329.55 189 329.6 187.75 329.2 187.15 329.75 184.4 332.4 178.5 332.5 177.4 332.35 176.95 332 177.15 328.75 182.05 327.85 182.9 327.45 183.95 326.7 184.35 326.2 185.25 325.5 185.05 325.4 184.3 327.05 180.9 327.85 180.15 330.1 175.4 330.55 173.5 331.45 171.4 331.8 171.3 332.35 172.05 332.55 172.05 334.75 170.95 335.45 171.65 335.65 171.8 336.3 171.25 336.8 169.75 337.95 169.4 341.3 169.1 342.15 167.9 344.65 167.8 347.35 168.35 348.2 168.35 349.7 167.7 350.8 167.8 351.75 167.5 353.5 167.75 353.95 167.9 354.55 167.75 353.95 167.25 353.3 167 351.75 165.5 351.75 162.2 351.1 162 350.6 162.45 346.8 163.5 345.45 163.1 345.15 162.95 345.15 160.3 344.5 160.2 341.15 161.7 338.05 161.85 336.4 162.35 334.5 164.05 333.75 164.55 333.25 164.55 332.6 164.9 331.9 164.65 331.15 164.05 330.45 164.55 328.6 164.6 327.25 163.35 326.55 161.9 325.85 161.35 324.4 160.85 323.25 160.85 322.7 160.3 320.95 161.65 320.5 162.15 320.05 161.95 320.25 160.7 321.35 159.15 321.6 158.05 322.7 157.7 323.4 156.2 325.2 155.7 325.35 155.3 324.8 154.75 322.55 154.95 320.5 156.15 319.4 157.2 318.8 158.05 317.95 158.45 317.05 159.8 316.95 160.4 314.85 161.4 313.75 162.3 310.9 162.8 310.6 163.05 310.6 163.55 308.9 164.6 307.65 164.95 307.3 165.25 306.95 165.65 306.65 166.15 306.2 166.1 305.85 165.55 304.6 165.15 304.05 165.25 303.2 165.7 302.75 165.45 303.05 164.55 303.9 163.05 304.5 162.6 303.55 161.9 302.55 162.25 301.2 163.1 297.7 164.65 296.3 164.95 294.95 164.7 294.5 164.35 294.2 164 295.85 162.7 296.5 162.6 298.6 160.25 299.5 159.8 301.65 156.3 303.15 155.1 311.6 151.35 311.9 150.25 309.8 150.45 309.5 150.95 309.2 150.95 308.35 149.5 304.1 149.65 303.7 150 303.2 150 302.55 148.55 301.35 148.8 299.85 150.35 299.1 150.7 297.65 150.7 296.4 150.2 296.4 149.15 295.8 149.1 295.55 149.4 294.35 148.75 294.1 147.35 293.4 147.65 293.15 148.05 292.05 147.85 289.5 146.75 287.7 145.5 286.25 145.5 285.65 145 284.6 145.3 284.05 145.75 283.95 146.4 281.65 146.4 281.65 145.4 278.7 145.3 278.55 144.6 276.3 144.6 275.55 143.85 274.45 138.4 273.55 138 272.45 137.75 272.15 137.8 272 141.65 257.8 141.65 222.45 140.55 195.55 138 167.9 134.45 152.65 132 121.9 125.8 83.25 115.75 82.6 116.15 82.45 116.5 84.1 119.95 83.2 121.7 83.2 122.95 83.5 123.65 83.15 124.5 83.35 126.05 83.8 126.6 83.75 127.2 83 127.35 82.2 125.3 81.35 124.6 81.5 123.6 82.6 123.4 82.35 122.05 81.3 122.6 80.7 123.1 80.7 124.3 79.6 124.35 78 123.9 76.65 123.15 75.2 122.9 71.55 121 69.15 118.45 68.15 118.15 67 122.6 67.9 124.1 67.9 127.85 67.6 129.25 68.35 132.6 69.6 133.85 67.55 134.1 67.4 135.9 68.65 136.4 67.9 138.3 66.65 138.45 66.5 139.8 67.6 141.2 66.65 142.35 64 150.2 62.5 153.25 60.15 159.9 57.05 166.35 52.35 173.7 51.35 180.55 52.65 182.25 51.7 185 51.6 188.55 49.15 194.05 47.65 195.35 47.5 195.85 46.7 196.25 45.6 199.7 46.85 201.65 48.15 205.4 48 208.45 47.1 209.95 46.85 212.7 46.4 214.45 49.55 220.65 50.2 222.55 50.1 224.05 49.95 224.25 49.95 225.3 52.6 228.25 51.85 231.4 51.9 235.25 53.8 238.25 55.05 238.45 55.6 239.75 55.05 241.45 54.05 242.2 53.55 242.2 53.2 244.05 53.35 245.45 54.9 247.5 56.95 253.7 59.3 257.65 59.5 259.05 60.3 259.55 60.3 260.65 59.9 261.55 58.8 265.8 60 267.1 61.9 267.35 64.1 268.15 65.95 269.15 67.3 269.15 68.65 270.6 70.4 274 72.2 274.95 74.5 275.35 75.2 276.35 75.5 277.85 74.85 278.15 74.95 278.65 76.5 279 77.7 279.1 79.1 281.3 80.95 283.3 81.3 284.35 82.55 286.35 82.7 287.9 82.7 292.35 82.95 293.15 97 295.15 103.7 295.65 104.1 295.9 102.85 297 102.75 297.7 102.9 298.15 132.55 315.6 138.35 316.7 158.3 319 158.8 314.45 173.75 316.7 175 318.1 175.65 320.15 177.9 321.3 178.55 322.8 182.55 327.3 184.85 328.3 185.35 329.25 186.15 329.75 186.35 331 187.9 334.1 187.9 337.95 188.95 340.1 192.5 343.85 194.9 344.85 195.85 345.75 195.85 346 197.65 347.15 198.55 347.4 199.4 347.9 200.6 348.35 201.75 347.25 203.8 344.35 204.3 342.6 205.4 341.05 209.25 339.55 210.65 340.65 217.4 341.45 218.6 342.4 218.6 342.95 219.85 344.4 222.7 346.9 222.8 347.6 223.65 348.5 224 350.55 226.5 356.35 226.4 357.2 228.45 358.45 230.15 361.55 231.75 363.6 233.2 364.25 234 365.35 233.4 367.45 233.65 367.85 234.3 368.2 234.1 369.8 233.85 370.1 234.1 371.15 235.65 372 236.25 375.1 237.2 376.95 240.8 378.6 243.3 379.1 245.3 380.55 246.8 380.85 247.4 380.6 250 381.1 252.75 383 254.15 382.05 254.65 381.4 253.8 380.1 252.1 372.75 252.45 370.65 254.35 364.05 253.2 363.2 253.7 362.25 255.6 362.15 257.4 359.45 259.05 359.25 261.8 357.55 262.65 356.8 268.3 354.1 270.8 352.55 274.8 349.05 277.65 347.15 278.1 346.15 282.8 344.1 288.1 342.45 291.95 342.35 296.8 344.05 299.85 344.5 301.6 343.85 304.65 344.85 305 343.85 303.55 343.3 302.3 343.5 301.05 342.75 301.4 342.1 302.85 341.6 303.7 342.35 304.55 341.8 306.05 342.15 306.7 343.3 306.9 344.3 309 344.45 309.85 345.3 309.5 346.05 308.85 346.45 309.6 347.25 313.6 348.95 315.3 348.3 315.75 347.15 317 346.9 317.85 346.15 318.5 346.65 318.85 348.05 317.8 348.4 318.05 348.65 319.65 348.1 320.75 346.45 321.15 346.25 320.1 346.1 320.5 345.3 320.45 344.65 321.4 344.35 321.95 343.8 322.2 344.15 322.5 345.6 324.5 345.9 326.35 346.8 326.9 347.5 328.2 347.5 328.75 348 329.8 346.55 329.8 345.8 329.15 345.8 327.6 344.5 324.85 344.15 323.3 343.1 323.85 341.8 324.95 341.9 325 341.6 324.2 341.15 324.2 340.9 325.7 340.9 326.55 339.45 325.9 338.55 325.8 337.3 325.1 337.4 324.2 338.35 323.9 339.6 322.45 339.3 321.95 338.45 323.75 336.75 324.65 336.1 325.9 334.1 326.7 334.55 329.95 333.6 330.95 333.75 331.65 334.1 334.1 334.1 334.25 333.35 334.75 333.25 336.15 333.25 Z"/>
</defs>

<g id="Blank_US_Map__states_only__svg">
<g transform="matrix( 1, 0, 0, 1, 0,0) ">
<use xlink:href="#Layer0_0_1_STROKES"/>
</g>
</g>
</svg>
